<svg id="_774674_doc_document_extension_file_format_icon" data-name="774674_doc_document_extension_file_format_icon" xmlns="http://www.w3.org/2000/svg" width="70" height="86" viewBox="0 0 70 86">
  <path id="Path_5" data-name="Path 5" d="M70,22.631V79.21A7.027,7.027,0,0,1,62.759,86H7.241A7.026,7.026,0,0,1,0,79.21V6.79A7.026,7.026,0,0,1,7.241,0h38.62Z" transform="translate(0)" fill="#f28314" fill-rule="evenodd"/>
  <path id="Path_7" data-name="Path 7" d="M56.962,22.442V25.4H37.036c-4.126,0-6.028-3.275-6.028-7.313V0h3.018Z" transform="translate(13.038)" fill="#fa9938" fill-rule="evenodd"/>
  <g id="Group" transform="translate(-122.36 -32.044) rotate(90)">
    <rect id="rect81" width="35.382" height="21.459" transform="translate(57.353 -168.09)" fill="none"/>
    <path id="path83" d="M51-160H83" transform="translate(8.097 2.713)" fill="none" stroke="#fff" stroke-linecap="round" stroke-linejoin="round" stroke-miterlimit="79.84" stroke-width="3" fill-rule="evenodd"/>
    <path id="path85" d="M83.651-157.678,73-167" transform="translate(7.75 0.39)" fill="none" stroke="#fff" stroke-linecap="round" stroke-linejoin="round" stroke-miterlimit="79.84" stroke-width="3" fill-rule="evenodd"/>
    <path id="path87" d="M83.651-160,73-150.678" transform="translate(7.75 2.713)" fill="none" stroke="#fff" stroke-linecap="round" stroke-linejoin="round" stroke-miterlimit="79.84" stroke-width="3" fill-rule="evenodd"/>
  </g>
</svg>
