<svg xmlns="http://www.w3.org/2000/svg" width="48.146" height="19" viewBox="0 0 48.146 19">
  <g id="GPay-logo" transform="translate(0 0)">
    <g id="Pay" transform="translate(20.993 1.102)">
      <path id="Shape" d="M1.791,8.356v5.6H.013V.129H4.728a4.227,4.227,0,0,1,3.048,1.2,3.989,3.989,0,0,1,.2,5.646l-.2.2a4.274,4.274,0,0,1-3.048,1.18Zm0-6.529v4.83H4.772a2.326,2.326,0,0,0,1.756-.717A2.426,2.426,0,0,0,4.772,1.827Z" transform="translate(-0.013 -0.128)" fill="#3c4043"/>
      <path id="Shape-2" data-name="Shape" d="M14.678,4.874a4.474,4.474,0,0,1,3.114,1.038,3.67,3.67,0,0,1,1.137,2.864v5.782h-1.7v-1.3h-.077a3.4,3.4,0,0,1-2.937,1.607,3.837,3.837,0,0,1-2.617-.918,2.886,2.886,0,0,1-1.049-2.3,2.789,2.789,0,0,1,1.115-2.317,4.694,4.694,0,0,1,2.97-.863,5.4,5.4,0,0,1,2.606.568v-.4a2.046,2.046,0,0,0-.729-1.563A2.6,2.6,0,0,0,14.8,6.426a2.712,2.712,0,0,0-2.352,1.246L10.879,6.7A4.317,4.317,0,0,1,14.678,4.874Zm-2.3,6.809a1.414,1.414,0,0,0,.585,1.148,2.186,2.186,0,0,0,1.38.459,2.839,2.839,0,0,0,2-.82,2.569,2.569,0,0,0,.883-1.935,3.583,3.583,0,0,0-2.319-.645A3.1,3.1,0,0,0,13.1,10.4,1.526,1.526,0,0,0,12.381,11.683Z" transform="translate(-1.538 -0.815)" fill="#3c4043"/>
      <path id="Path" d="M30.159,5.235l-5.941,13.62H22.386l2.208-4.764L20.7,5.235h1.932l2.816,6.793h.033l2.749-6.793Z" transform="translate(-3.007 -0.957)" fill="#3c4043" fill-rule="evenodd"/>
    </g>
    <g id="Super-G" transform="translate(0 0)">
      <path id="Path-2" data-name="Path" d="M17.055,9.347a9.8,9.8,0,0,0-.133-1.61h-7.5v3.055h4.3a3.677,3.677,0,0,1-1.59,2.415v1.985h2.562A7.741,7.741,0,0,0,17.055,9.347Z" transform="translate(-1.472 -1.23)" fill="#4285f4" fill-rule="evenodd"/>
      <path id="Path-3" data-name="Path" d="M8.223,17.611a7.61,7.61,0,0,0,5.267-1.919l-2.562-1.985a4.819,4.819,0,0,1-7.166-2.514H1.123v2.051A7.942,7.942,0,0,0,8.223,17.611Z" transform="translate(-0.27 -1.73)" fill="#34a853" fill-rule="evenodd"/>
      <path id="Path-4" data-name="Path" d="M3.618,10.332a4.785,4.785,0,0,1,0-3.044V5.248H.979a7.864,7.864,0,0,0,0,7.124Z" transform="translate(-0.126 -0.87)" fill="#fbbc04" fill-rule="evenodd"/>
      <path id="Path-5" data-name="Path" d="M8.223,3.272a4.282,4.282,0,0,1,3.048,1.191l2.275-2.272A7.68,7.68,0,0,0,8.223.129a7.953,7.953,0,0,0-7.1,4.378L3.762,6.558A4.752,4.752,0,0,1,8.223,3.272Z" transform="translate(-0.27 -0.128)" fill="#ea4335" fill-rule="evenodd"/>
    </g>
  </g>
</svg>
