<svg xmlns="http://www.w3.org/2000/svg" width="125" height="18.999" viewBox="0 0 125 18.999">
  <g id="Group_4" data-name="Group 4" transform="translate(-949 -2051)">
    <g id="g12" transform="translate(949 2051)">
      <path id="path14" d="M0,0V19H19Z" fill="#5f95d2"/>
    </g>
    <g id="Group_3" data-name="Group 3" transform="translate(949 2051)">
      <g id="g16">
        <path id="path18" d="M-157.7,0h-19V19Z" transform="translate(176.696)" fill="#1976d2"/>
      </g>
      <g id="g20" transform="translate(26.595 3.796)">
        <g id="Сгруппировать_2" data-name="Сгруппировать 2" transform="translate(0 0)">
          <g id="g28" transform="translate(56.23 0.004)">
            <path id="path30" d="M-69.382-56.771H-75.46v-1.708a3.019,3.019,0,0,1,3.039-2.85,3.019,3.019,0,0,1,3.039,2.85Zm-3.039-6.84a5.294,5.294,0,0,0-5.32,5.127v6.27h2.281v-2.281h6.078v2.281H-67.1v-6.27a5.294,5.294,0,0,0-5.32-5.127" transform="translate(77.741 63.611)" fill="#ff5722"/>
          </g>
          <g id="g32" transform="translate(87.765 0.004)">
            <path id="path34" d="M-69.382-56.771H-75.46v-1.708a3.019,3.019,0,0,1,3.039-2.85,3.019,3.019,0,0,1,3.039,2.85Zm-3.039-6.84a5.294,5.294,0,0,0-5.32,5.127v6.27h2.281v-2.281h6.078v2.281H-67.1v-6.27a5.294,5.294,0,0,0-5.32-5.127" transform="translate(77.741 63.611)" fill="#ff5722"/>
          </g>
          <g id="g36" transform="translate(32.673 0.004)">
            <path id="path38" d="M-47.323-75.668a3.422,3.422,0,0,1-3.42-3.42,3.422,3.422,0,0,1,3.42-3.42,3.422,3.422,0,0,1,3.42,3.42,3.419,3.419,0,0,1-3.42,3.42m0-9.116a5.7,5.7,0,0,0-5.7,5.7,5.7,5.7,0,0,0,5.7,5.7,5.7,5.7,0,0,0,5.7-5.7,5.7,5.7,0,0,0-5.7-5.7" transform="translate(53.024 84.784)" fill="#1976d2"/>
          </g>
          <g id="g40" transform="translate(22.8)">
            <path id="path42" d="M-46.65-75.7h-3.344v-2.281h3.344a1.14,1.14,0,0,1,1.138,1.138A1.144,1.144,0,0,1-46.65-75.7m-3.344-6.839h2.205a1.14,1.14,0,0,1,1.138,1.138,1.14,1.14,0,0,1-1.138,1.138h-2.205Zm5.181,2.819a3.382,3.382,0,0,0,.444-1.681,3.422,3.422,0,0,0-3.42-3.42h-4.482v11.4h5.625a3.422,3.422,0,0,0,3.42-3.42,3.433,3.433,0,0,0-1.587-2.877" transform="translate(52.271 84.825)" fill="#1976d2"/>
          </g>
          <g id="g44" transform="translate(10.067 0.004)">
            <path id="path46" d="M-47.32-75.668a3.422,3.422,0,0,1-3.42-3.42,3.422,3.422,0,0,1,3.42-3.42,3.422,3.422,0,0,1,3.42,3.42,3.419,3.419,0,0,1-3.42,3.42m0-9.116a5.7,5.7,0,0,0-5.7,5.7,5.7,5.7,0,0,0,5.7,5.7,5.7,5.7,0,0,0,5.7-5.7,5.7,5.7,0,0,0-5.7-5.7" transform="translate(53.021 84.784)" fill="#1976d2"/>
          </g>
          <g id="g48" transform="translate(68.009 0.004)">
            <path id="path50" d="M-50.37-38.021l.014-.022h-2.658a1.14,1.14,0,0,1-1.138-1.139,1.14,1.14,0,0,1,1.138-1.138h4.177l1.519-2.281h-5.7a3.422,3.422,0,0,0-3.42,3.42,3.413,3.413,0,0,0,3.052,3.4l-.013.023h2.658A1.14,1.14,0,0,1-49.6-34.623a1.14,1.14,0,0,1-1.139,1.138h-4.177L-56.439-31.2h5.7a3.422,3.422,0,0,0,3.42-3.42,3.416,3.416,0,0,0-3.052-3.4" transform="translate(56.439 42.601)" fill="#ff5722"/>
          </g>
          <g id="g52" transform="translate(77.506 0.004)">
            <path id="path54" d="M-28.385,0a3.422,3.422,0,0,0-3.42,3.42,3.413,3.413,0,0,0,3.052,3.4l-.013.023h2.658A1.14,1.14,0,0,1-24.97,7.978a1.14,1.14,0,0,1-1.138,1.138h-4.177L-31.805,11.4h5.7a3.422,3.422,0,0,0,3.42-3.42,3.413,3.413,0,0,0-3.052-3.4l.013-.022h-2.658A1.14,1.14,0,0,1-29.519,3.42a1.14,1.14,0,0,1,1.138-1.138H-24.2L-22.685,0Z" transform="translate(31.805)" fill="#ff5722"/>
          </g>
          <g id="g56" transform="translate(45.595 0.004)">
            <path id="path58" d="M-77.863,0l-4.661,4.961,4.778,6.432H-80.4l-3.635-4.823-.923,1.1v3.715h-2.281V0h2.281V4.5l4.11-4.5Z" transform="translate(87.244)" fill="#ff5722"/>
          </g>
          <g id="g60" transform="translate(0 0.004)">
            <path id="path62" d="M-18.936-42.559H-15.9a1.521,1.521,0,0,0,1.519-1.519A1.521,1.521,0,0,0-15.9-45.6h-3.039Zm0,6.27h-2.281v-11.4h5.37a3.475,3.475,0,0,1,2.478.986A3.878,3.878,0,0,1-12.1-44.079a3.307,3.307,0,0,1-.762,2.281,3.288,3.288,0,0,1-1.9,1.331l2.85,4.177h-2.658l-2.68-3.944a.566.566,0,0,0-.461-.233h-1.228Z" transform="translate(21.217 47.687)" fill="#1976d2"/>
          </g>
        </g>
      </g>
    </g>
  </g>
</svg>
