<svg xmlns="http://www.w3.org/2000/svg" width="48.439" height="19" viewBox="0 0 48.439 19">
  <g id="Group" transform="translate(0 0)">
    <g id="Path" transform="translate(0 0)">
      <path id="Path_3" data-name="Path 3" d="M9.812,2.477a3.411,3.411,0,0,0,.8-2.453A3.473,3.473,0,0,0,8.322,1.195,3.2,3.2,0,0,0,7.5,3.552,2.9,2.9,0,0,0,9.812,2.477" transform="translate(-1.224 -0.024)" fill-rule="evenodd"/>
      <path id="Path_4" data-name="Path 4" d="M9.572,4.331c-1.277-.075-2.362.715-2.972.715s-1.544-.677-2.553-.659a3.772,3.772,0,0,0-3.2,1.919C-.526,8.639.484,12.1,1.818,14c.648.94,1.429,1.975,2.457,1.938.972-.038,1.353-.621,2.534-.621s1.524.621,2.553.6c1.067-.019,1.734-.941,2.382-1.882a8.3,8.3,0,0,0,1.067-2.163,3.423,3.423,0,0,1-2.076-3.1,3.48,3.48,0,0,1,1.677-2.916A3.666,3.666,0,0,0,9.572,4.331" transform="translate(-0.191 -0.633)" fill-rule="evenodd"/>
    </g>
    <g id="Group_5" data-name="Group 5" transform="translate(18.135 1.076)">
      <path id="Shape" d="M5.595.41A4.458,4.458,0,0,1,10.3,5.045,4.508,4.508,0,0,1,5.525,9.7H2.453v4.821H.233V.41H5.595ZM2.453,7.862H5c1.933,0,3.032-1.027,3.032-2.807s-1.1-2.8-3.023-2.8H2.453Z" transform="translate(-0.233 -0.41)"/>
      <path id="Shape-2" data-name="Shape" d="M12.639,12.183c0-1.8,1.4-2.9,3.875-3.035l2.854-.166v-.79c0-1.142-.783-1.825-2.091-1.825a1.993,1.993,0,0,0-2.2,1.5H13.055c.119-1.854,1.724-3.221,4.3-3.221,2.527,0,4.142,1.318,4.142,3.377V15.1H19.447V13.412H19.4a3.736,3.736,0,0,1-3.29,1.864C14.066,15.276,12.639,14.027,12.639,12.183Zm6.729-.927v-.81L16.8,10.6c-1.278.088-2,.644-2,1.523,0,.9.753,1.483,1.9,1.483A2.484,2.484,0,0,0,19.368,11.255Z" transform="translate(-1.99 -1.01)"/>
      <path id="Path-2" data-name="Path" d="M25.046,18.937V17.226a4.014,4.014,0,0,0,.694.039A1.732,1.732,0,0,0,27.593,15.8c0-.02.188-.626.188-.636l-3.766-10.3h2.319l2.636,8.371h.039l2.636-8.371h2.259L30,15.69c-.892,2.494-1.922,3.3-4.083,3.3A8.389,8.389,0,0,1,25.046,18.937Z" transform="translate(-3.602 -1.062)" fill-rule="evenodd"/>
    </g>
  </g>
</svg>
