<svg id="Group_9" data-name="Group 9" xmlns="http://www.w3.org/2000/svg" width="42.655" height="26.644" viewBox="0 0 42.655 26.644">
  <circle id="Ellipse_16" data-name="Ellipse 16" cx="13.322" cy="13.322" r="13.322" transform="translate(0 0)" fill="#f93232"/>
  <path id="Path_12" data-name="Path 12" d="M25.322,0a13.238,13.238,0,0,0-7.968,2.665h-.025v.018A13.4,13.4,0,0,0,15.854,4H18.8a12.924,12.924,0,0,1,1.139,1.332H14.705a13.232,13.232,0,0,0-.888,1.332h7.011a13.677,13.677,0,0,1,.691,1.332H13.137a13.1,13.1,0,0,0-.5,1.332h9.384c.139.435.247.888.343,1.332H12.288a13.21,13.21,0,0,0-.21,1.332h10.5a11.267,11.267,0,0,1,.08,1.332H12a13.322,13.322,0,0,0,.08,1.332h10.5c-.05.451-.124.888-.217,1.332H12.29a13.028,13.028,0,0,0,.355,1.332h9.384a13.1,13.1,0,0,1-.5,1.332H13.139a13.027,13.027,0,0,0,.679,1.332h7.011a13.032,13.032,0,0,1-.888,1.332H14.705a13.353,13.353,0,0,0,1.149,1.332H18.8a13.388,13.388,0,0,1-1.474,1.314A13.322,13.322,0,1,0,25.322,0Z" transform="translate(3.986 0)" fill="#fed049"/>
</svg>
