<svg id="Group_10" data-name="Group 10" xmlns="http://www.w3.org/2000/svg" width="81.704" height="26.652" viewBox="0 0 81.704 26.652">
  <path id="Path_13" data-name="Path 13" d="M91.163,182.324l-4.155,25.74h6.647l4.151-25.74Zm-9.748,0-6.345,17.7-.75-3.812-.165-.854a21.327,21.327,0,0,0-5.9-7.537,26.587,26.587,0,0,0-2.957-2.064l5.76,22.3h6.927L88.57,182.324Zm25.944,7.146c0-2.91,6.474-2.536,9.318-.956l.949-5.528a19.058,19.058,0,0,0-5.979-1.123c-3.3,0-11.134,1.455-11.134,8.526,0,6.65,9.2,6.734,9.2,10.226s-8.247,2.867-10.968.664l-.989,5.778a18.5,18.5,0,0,0,7.5,1.455c4.537,0,11.38-2.37,11.38-8.812,0-6.7-9.277-7.322-9.277-10.231Zm27.127-7.146h-5.345a3.057,3.057,0,0,0-3.069,1.918l-9.913,23.821h6.927l1.385-3.822h8.451l.78,3.822h6.1Zm-8.1,16.635,3.494-9.633,1.965,9.633Z" transform="translate(-58.102 -181.864)" fill="#005bac" fill-rule="evenodd"/>
  <path id="Path_14" data-name="Path 14" d="M39.157,187.345a2.911,2.911,0,0,0-3.245-2.327H25.135l-.126.437a26.705,26.705,0,0,1,10.151,5.013,20.139,20.139,0,0,1,6.3,8.5Z" transform="translate(-25.009 -184.457)" fill="#f6ac1d" fill-rule="evenodd"/>
</svg>
